<?xml version="1.0" encoding="UTF-8" standalone="no"?>
<svg
   width="16"
   height="16"
   version="1.1"
   id="svg14"
   sodipodi:docname="favicon.svg"
   inkscape:version="1.4 (e7c3feb100, 2024-10-09)"
   inkscape:export-filename="favicon.png"
   inkscape:export-xdpi="96"
   inkscape:export-ydpi="96"
   xmlns:inkscape="http://www.inkscape.org/namespaces/inkscape"
   xmlns:sodipodi="http://sodipodi.sourceforge.net/DTD/sodipodi-0.dtd"
   xmlns="http://www.w3.org/2000/svg"
   xmlns:svg="http://www.w3.org/2000/svg">
  <defs
     id="defs18" />
  <sodipodi:namedview
     id="namedview16"
     pagecolor="#505050"
     bordercolor="#ffffff"
     borderopacity="1"
     inkscape:pageshadow="0"
     inkscape:pageopacity="0"
     inkscape:pagecheckerboard="1"
     showgrid="false"
     inkscape:current-layer="g12"
     inkscape:showpageshadow="0"
     inkscape:deskcolor="#505050"
     inkscape:zoom="18.853461"
     inkscape:cx="9.0434322"
     inkscape:cy="9.5738388"
     inkscape:window-width="1536"
     inkscape:window-height="891"
     inkscape:window-x="0"
     inkscape:window-y="0"
     inkscape:window-maximized="1">
    <inkscape:grid
       type="xygrid"
       id="grid20"
       originx="0"
       originy="0"
       spacingy="1"
       spacingx="1"
       units="px" />
  </sodipodi:namedview>
  <g
     transform="translate(380 -506.52)"
     id="g12">
    <rect
       ry="16.875"
       rx="16.875"
       y="2409.281"
       x="4128.568"
       height="90"
       width="90"
       fill="#201a26"
       transform="matrix(.17778 0 0 .17778 -1113.968 78.203)"
       stroke-width="5.625"
       id="rect2"
       style="fill:#deddda;fill-opacity:1;font-variation-settings:normal;opacity:1;vector-effect:none;stroke-width:5.62498594;stroke-linecap:butt;stroke-linejoin:miter;stroke-miterlimit:4;stroke-dasharray:none;stroke-dashoffset:0;stroke-opacity:1;-inkscape-stroke:none;stop-color:#000000;stop-opacity:1" />
    <g
       id="g4"
       transform="matrix(0.07666724,0,0,0.07666724,-414.57685,529.26496)"
       style="stroke-width:13.0434">
      <path
         style="fill:#7e8287;fill-opacity:1;stroke-width:13.0434;-inkscape-stroke:none"
         d="m 462.59973,-161.2733 17.4477,44.79814 23.57797,15.56146 h 91.95407 l 21.69173,-12.73211 24.52109,-45.74125 -13.20366,-35.36696 9.90274,-18.86237 -53.75776,-69.31923 h -39.61099 l -29.23668,43.85502 -13.67522,1.88624 z"
         id="path2" />
      <path
         style="fill:#241f31;fill-opacity:0.264691;stroke-width:13.0434;-inkscape-stroke:none"
         d="m 564.92811,-282.93562 h 19.8055 l 53.75776,69.31923 -9.90274,18.86237 13.20366,35.36696 -24.52109,45.74125 -21.69173,12.73211 H 503.6254 l -23.57797,-15.56146 h 30.07351 l 71.07597,7.54495 8.95963,-38.43209 -27.58622,-38.90365 v -18.15503 l 4.71559,-20.98439 z"
         id="path3" />
      <path
         style="fill:#241f31;fill-opacity:1;stroke-width:13.0434;-inkscape-stroke:none"
         d="m 509.75567,-116.0036 22.16329,14.61834 h 64.13207 l 21.22017,-12.26055 24.52109,-45.74125 -25.93577,-16.50458 h -27.35044 l -25.93576,-10.37431 v 47.15594 l 11.08164,-11.08165 7.30917,7.30917 -19.56971,19.56972 h 19.56971 v 8.72385 h -44.79814 v -9.43119 h 18.86238 l -17.91926,-17.91926 7.30917,-7.30917 9.90275,9.90275 v -34.18805 z"
         id="path1" />
      <path
         style="fill:#241f31;fill-opacity:1;stroke-width:13.0434;-inkscape-stroke:none"
         d="m 638.49137,-213.61639 -71.20546,-11.78898 -4.71559,20.98439 66.01831,9.66696 z"
         id="path4" />
    </g>
  </g>
</svg>
