<?xml version="1.0" encoding="UTF-8" standalone="no"?>
<svg
   width="160"
   height="26"
   version="1.1"
   id="svg10"
   sodipodi:docname="page-logo.svg"
   inkscape:version="1.4 (e7c3feb100, 2024-10-09)"
   xmlns:inkscape="http://www.inkscape.org/namespaces/inkscape"
   xmlns:sodipodi="http://sodipodi.sourceforge.net/DTD/sodipodi-0.dtd"
   xmlns="http://www.w3.org/2000/svg"
   xmlns:svg="http://www.w3.org/2000/svg">
  <defs
     id="defs14" />
  <sodipodi:namedview
     id="namedview12"
     pagecolor="#505050"
     bordercolor="#ffffff"
     borderopacity="1"
     inkscape:pageshadow="0"
     inkscape:pageopacity="0"
     inkscape:pagecheckerboard="1"
     showgrid="false"
     width="149px"
     inkscape:current-layer="svg10"
     inkscape:showpageshadow="0"
     inkscape:deskcolor="#505050"
     inkscape:zoom="4"
     inkscape:cx="73.625"
     inkscape:cy="0.125"
     inkscape:window-width="2560"
     inkscape:window-height="1371"
     inkscape:window-x="0"
     inkscape:window-y="0"
     inkscape:window-maximized="1" />
  <g
     id="g4"
     transform="matrix(0.12002499,0,0,0.12002499,-53.983876,36.112166)"
     style="stroke-width:8.33159">
    <path
       style="fill:#7e8287;fill-opacity:1;stroke-width:8.33159;-inkscape-stroke:none"
       d="m 462.59973,-161.2733 17.4477,44.79814 23.57797,15.56146 h 91.95407 l 21.69173,-12.73211 24.52109,-45.74125 -13.20366,-35.36696 9.90274,-18.86237 -53.75776,-69.31923 h -39.61099 l -29.23668,43.85502 -13.67522,1.88624 z"
       id="path2" />
    <path
       style="fill:#241f31;fill-opacity:0.264691;stroke-width:8.33159;-inkscape-stroke:none"
       d="m 564.92811,-282.93562 h 19.8055 l 53.75776,69.31923 -9.90274,18.86237 13.20366,35.36696 -24.52109,45.74125 -21.69173,12.73211 H 503.6254 l -23.57797,-15.56146 h 30.07351 l 71.07597,7.54495 8.95963,-38.43209 -27.58622,-38.90365 v -18.15503 l 4.71559,-20.98439 z"
       id="path3" />
    <path
       style="fill:#241f31;fill-opacity:1;stroke-width:8.33159;-inkscape-stroke:none"
       d="m 509.75567,-116.0036 22.16329,14.61834 h 64.13207 l 21.22017,-12.26055 24.52109,-45.74125 -25.93577,-16.50458 h -27.35044 l -25.93576,-10.37431 v 47.15594 l 11.08164,-11.08165 7.30917,7.30917 -19.56971,19.56972 h 19.56971 v 8.72385 h -44.79814 v -9.43119 h 18.86238 l -17.91926,-17.91926 7.30917,-7.30917 9.90275,9.90275 v -34.18805 z"
       id="path1" />
    <path
       style="fill:#241f31;fill-opacity:1;stroke-width:8.33159;-inkscape-stroke:none"
       d="m 638.49137,-213.61639 -71.20546,-11.78898 -4.71559,20.98439 66.01831,9.66696 z"
       id="path4" />
  </g>
  <path
     d="m 42.901047,-35.709915 q -1.222662,0 -2.330699,-0.229249 -1.088933,-0.22925 -1.986826,-0.649539 l 1.031621,-2.407116 q 0.821476,0.382082 1.623848,0.573123 0.802372,0.191041 1.604744,0.191041 1.088934,0 1.642952,-0.439395 0.554019,-0.439394 0.554019,-1.318182 v -0.573123 q -1.184454,0.802372 -2.617261,0.802372 -1.432807,0 -2.598157,-0.687747 -1.165349,-0.687748 -1.853097,-1.853098 -0.687747,-1.184453 -0.687747,-2.617261 0,-1.432806 0.687747,-2.598156 0.706852,-1.16535 1.891306,-1.833994 1.203558,-0.687747 2.674573,-0.687747 0.687747,0 1.337286,0.171937 0.649539,0.171937 1.203558,0.496706 v -0.534914 h 3.056655 v 9.953233 q 0,2.044138 -1.35639,3.133071 -1.337287,1.108038 -3.878132,1.108038 z m 0.05731,-6.648225 q 0.630436,0 1.146246,-0.191041 0.534915,-0.19104 0.936101,-0.554018 v -3.572466 q -0.401186,-0.343874 -0.936101,-0.534915 -0.51581,-0.210145 -1.127141,-0.210145 -0.74506,0 -1.356391,0.343874 -0.592227,0.324769 -0.955205,0.897892 -0.343873,0.554019 -0.343873,1.26087 0,0.725956 0.343873,1.318183 0.343874,0.573123 0.936101,0.916996 0.611331,0.32477 1.35639,0.32477 z m 7.087602,2.559949 v -10.106066 h 3.094863 v 1.012517 q 0.496707,-0.611331 1.16535,-0.916997 0.668643,-0.324769 1.490119,-0.324769 0.821476,0.0191 1.16535,0.248353 v 2.693677 q -0.305666,-0.152833 -0.687748,-0.229249 -0.382081,-0.07642 -0.783267,-0.07642 -0.725956,0 -1.356391,0.343874 -0.611331,0.32477 -0.993413,0.936101 v 6.418976 z m 11.290499,0.171937 q -1.069829,0 -1.910409,-0.401187 -0.821476,-0.401185 -1.299078,-1.108037 -0.458499,-0.706852 -0.458499,-1.623848 0,-1.451912 1.088934,-2.235179 1.108037,-0.802372 3.075759,-0.802372 1.184454,0 2.292491,0.286561 v -0.496706 q 0,-0.764164 -0.496706,-1.127142 -0.477602,-0.382082 -1.432807,-0.382082 -0.592227,0 -1.337287,0.191042 -0.725955,0.191041 -1.719369,0.611331 l -1.108037,-2.273388 q 1.241766,-0.554019 2.388012,-0.821476 1.16535,-0.286561 2.330699,-0.286561 2.101451,0 3.266801,1.012517 1.16535,0.993413 1.16535,2.808302 v 6.476288 h -3.056656 v -0.611331 q -0.611331,0.420289 -1.299078,0.611331 -0.668643,0.171937 -1.49012,0.171937 z m -0.725955,-3.190384 q 0,0.477602 0.42029,0.745059 0.42029,0.267457 1.16535,0.267457 0.554018,0 1.031621,-0.114623 0.496706,-0.114625 0.897892,-0.362979 v -1.299078 q -0.439394,-0.114625 -0.897892,-0.171937 -0.458498,-0.05731 -0.936101,-0.05731 -0.802372,0 -1.241766,0.267457 -0.439394,0.248354 -0.439394,0.725956 z m 8.405783,3.018447 v -10.106066 h 3.094867 v 0.687747 q 1.146246,-0.878788 2.712782,-0.878788 1.184451,0 2.082346,0.515811 0.916997,0.51581 1.432808,1.432806 0.515806,0.916997 0.515806,2.120555 v 6.227935 h -3.094861 v -5.807645 q 0,-0.84058 -0.496708,-1.337286 -0.496704,-0.496707 -1.337286,-0.496707 -0.592226,0 -1.050725,0.210145 -0.439391,0.210145 -0.764162,0.592227 v 6.839266 z m 11.672609,0 v -10.106066 h 3.09486 v 10.106066 z m 1.547435,-11.042167 q -0.706856,0 -1.203559,-0.496706 -0.496709,-0.496707 -0.496709,-1.203558 0,-0.706852 0.496709,-1.203558 0.496703,-0.496707 1.203559,-0.496707 0.70685,0 1.203554,0.496707 0.496708,0.496706 0.496708,1.203558 0,0.706851 -0.496708,1.203558 -0.496704,0.496706 -1.203554,0.496706 z m 8.558614,11.175895 q -1.814892,0 -2.750992,-0.802372 -0.916997,-0.821476 -0.916997,-2.407116 v -4.451253 h -2.044137 v -2.579053 h 2.044137 v -2.598157 l 3.094865,-0.668643 v 3.2668 h 2.827407 v 2.579053 H 90.22182 v 3.839922 q 0,0.668643 0.286562,0.955205 0.305664,0.267458 1.050724,0.267458 0.382084,0 0.687748,-0.03821 0.324772,-0.05731 0.706851,-0.171937 v 2.502638 q -0.420289,0.133729 -1.069827,0.210146 -0.649543,0.09552 -1.088934,0.09552 z m 8.405779,0.05731 q -1.547433,0 -2.808299,-0.687748 -1.241769,-0.706851 -1.967721,-1.891305 -0.725958,-1.184454 -0.725958,-2.655469 0,-1.471015 0.687748,-2.655469 0.70685,-1.184454 1.910409,-1.872202 1.203559,-0.706851 2.674572,-0.706851 1.490116,0 2.636366,0.725955 1.14624,0.706852 1.79579,1.948618 0.66864,1.241767 0.66864,2.84651 v 0.764167 h -7.202245 q 0.210142,0.477603 0.554016,0.84058 0.362982,0.362978 0.859685,0.573122 0.496709,0.191041 1.069832,0.191041 0.630436,0 1.146242,-0.191041 0.51581,-0.210144 0.87879,-0.573122 l 2.04414,1.814889 q -0.9552,0.802372 -1.96772,1.165349 -0.99342,0.362979 -2.254287,0.362979 z m -2.38801,-6.342559 h 4.222007 q -0.15284,-0.496707 -0.47761,-0.84058 -0.30566,-0.362979 -0.725951,-0.55402 -0.420289,-0.210145 -0.916997,-0.210145 -0.515811,0 -0.9361,0.191042 -0.420289,0.191041 -0.725958,0.554018 -0.286562,0.343874 -0.439391,0.859685 z m 9.571127,6.361663 q -0.72596,0 -1.26087,-0.515811 -0.51581,-0.534914 -0.51581,-1.260871 0,-0.725955 0.51581,-1.241765 0.53491,-0.534915 1.26087,-0.534915 0.72595,0 1.24177,0.534915 0.53491,0.515811 0.53491,1.241765 0,0.725957 -0.53491,1.260871 -0.51582,0.515811 -1.24177,0.515811 z m 7.94727,-0.0191 q -1.50922,0 -2.73188,-0.687747 -1.20356,-0.687748 -1.91041,-1.872202 -0.70685,-1.203557 -0.70685,-2.674573 0,-1.490119 0.70685,-2.674573 0.70685,-1.184454 1.91041,-1.872201 1.22266,-0.706852 2.73188,-0.706852 1.24177,0 2.36891,0.496707 1.12714,0.477602 1.91041,1.375495 l -1.8913,1.967721 q -0.53492,-0.611331 -1.08894,-0.878788 -0.55402,-0.286561 -1.22266,-0.286561 -0.66864,0 -1.20356,0.343873 -0.53491,0.32477 -0.84058,0.916997 -0.30566,0.573123 -0.30566,1.318182 0,0.725956 0.30566,1.318183 0.32477,0.573123 0.87879,0.916997 0.55402,0.324769 1.24177,0.324769 0.63043,0 1.16535,-0.267457 0.53491,-0.267458 1.03162,-0.821476 l 1.83399,1.910409 q -0.76417,0.878789 -1.8722,1.375495 -1.10804,0.477602 -2.3116,0.477602 z m 10.14425,0 q -1.54743,0 -2.7892,-0.687747 -1.24177,-0.706852 -1.96772,-1.891306 -0.72596,-1.184453 -0.72596,-2.655469 0,-1.471015 0.72596,-2.655469 0.72595,-1.203558 1.96772,-1.891305 1.24177,-0.706852 2.7892,-0.706852 1.54743,0 2.7892,0.706852 1.24176,0.687747 1.96772,1.891305 0.72596,1.184454 0.72596,2.655469 0,1.471016 -0.72596,2.655469 -0.72596,1.184454 -1.96772,1.891306 -1.24177,0.687747 -2.7892,0.687747 z m 0,-2.674573 q 0.70685,0 1.26087,-0.343874 0.55402,-0.343874 0.87879,-0.916997 0.32476,-0.592226 0.32476,-1.299078 0,-0.725955 -0.32476,-1.299078 -0.32477,-0.592227 -0.8979,-0.936101 -0.55401,-0.343874 -1.24176,-0.343874 -0.68775,0 -1.26087,0.343874 -0.55402,0.343874 -0.87879,0.936101 -0.32477,0.573122 -0.32477,1.299078 0,0.706852 0.32477,1.299078 0.32477,0.573123 0.87879,0.916997 0.57312,0.343874 1.26087,0.343874 z m 11.63438,2.61726 q -1.43281,0 -2.61726,-0.687747 -1.16535,-0.706851 -1.8531,-1.872201 -0.68775,-1.184454 -0.68775,-2.636365 0,-1.451911 0.68775,-2.617261 0.70685,-1.184454 1.89131,-1.872201 1.20355,-0.687748 2.67457,-0.687748 0.70685,0 1.35639,0.171937 0.64954,0.171937 1.22266,0.496707 v -3.801715 l 3.09486,-0.477602 v 13.850467 h -3.05665 v -0.74506 q -1.20356,0.878788 -2.71278,0.878789 z m 0.53491,-2.636365 q 0.64954,0 1.18446,-0.191041 0.53491,-0.210144 0.9552,-0.61133 v -3.534257 q -0.40118,-0.382083 -0.9552,-0.573124 -0.55402,-0.210145 -1.18446,-0.210145 -0.74506,0 -1.35639,0.343874 -0.59222,0.324769 -0.9552,0.916997 -0.34387,0.573123 -0.34387,1.299078 0,0.725956 0.34387,1.318182 0.36298,0.573123 0.9552,0.916997 0.61133,0.324769 1.35639,0.324769 z m 12.18842,2.693678 q -1.54742,0 -2.8083,-0.687748 -1.24176,-0.706851 -1.96772,-1.891305 -0.72595,-1.184454 -0.72595,-2.655469 0,-1.471015 0.68774,-2.655469 0.70685,-1.184454 1.91041,-1.872201 1.20356,-0.706851 2.67457,-0.706851 1.49013,0 2.63637,0.725955 1.14625,0.706851 1.79579,1.948617 0.66864,1.241767 0.66864,2.84651 v 0.764164 h -7.20224 q 0.21014,0.477603 0.55402,0.84058 0.36297,0.362978 0.85968,0.573123 0.49671,0.191041 1.06983,0.191041 0.63043,0 1.14625,-0.191041 0.51581,-0.210145 0.87878,-0.573123 l 2.04414,1.814889 q -0.9552,0.802372 -1.96772,1.16535 -0.99341,0.362978 -2.25429,0.362978 z m -2.38801,-6.342559 h 4.22201 q -0.15284,-0.496707 -0.4776,-0.84058 -0.30567,-0.362978 -0.72596,-0.554019 -0.42029,-0.210145 -0.917,-0.210145 -0.51581,0 -0.9361,0.191041 -0.42029,0.191041 -0.72595,0.554018 -0.28656,0.343874 -0.4394,0.859685 z"
     id="path5"
     style="font-size:37.3333px;font-family:'Red Hat Display';-inkscape-font-specification:'Red Hat Display, @wght=900';font-variation-settings:'wght' 900;stroke-width:1.00001"
     aria-label="granite.code" />
  <path
     d="m 42.822111,23.669173 q -1.620666,0 -2.651999,-0.441999 -1.031332,-0.442 -1.574624,-1.197083 -0.534083,-0.745875 -0.690624,-1.675916 h 3.480748 q 0.06446,0.230209 0.248624,0.405167 0.193375,0.184166 0.488042,0.285458 0.303875,0.101292 0.699833,0.101292 0.764291,0 1.141832,-0.432792 0.377541,-0.432791 0.377541,-1.316791 v -1.500957 h -0.0092 q -0.221,0.570916 -0.616958,0.939249 -0.395958,0.368333 -0.930041,0.543292 -0.524875,0.16575 -1.160249,0.16575 -1.27075,0 -2.219208,-0.626167 -0.939249,-0.626166 -1.464124,-1.721957 -0.515666,-1.095791 -0.515666,-2.495457 0,-1.436499 0.534083,-2.550707 0.534083,-1.123416 1.473333,-1.75879 0.939249,-0.644583 2.154748,-0.644583 0.635375,0 1.141833,0.184166 0.506458,0.174959 0.902416,0.515667 0.405166,0.340708 0.690624,0.828749 h 0.0092 V 9.967181 h 3.664915 v 9.024162 q 0,1.629874 -0.60775,2.661206 -0.607749,1.031333 -1.767999,1.519375 -1.15104,0.497249 -2.79933,0.497249 z m -0.101292,-6.943079 q 0.506458,0 0.893208,-0.257833 0.38675,-0.257833 0.607749,-0.727458 0.221,-0.478833 0.221,-1.114207 0,-0.635375 -0.221,-1.105 -0.220999,-0.469625 -0.607749,-0.718249 -0.38675,-0.257833 -0.893208,-0.257833 -0.49725,0 -0.856374,0.257833 -0.349917,0.248624 -0.534083,0.718249 -0.184167,0.469625 -0.184167,1.105 0,0.635374 0.184167,1.114207 0.184166,0.469625 0.534083,0.727458 0.359124,0.257833 0.856374,0.257833 z m 6.860204,2.965082 V 9.967181 h 3.572831 v 1.767999 h 0.01842 q 0.267041,-0.985291 0.828749,-1.37204 0.561708,-0.395959 1.565416,-0.395959 0.267042,0 0.478833,0 0.221,0 0.442,0 v 2.946666 q -0.193375,0 -0.598541,0 -0.395959,0 -0.745875,0 -0.570916,0 -0.994499,0.257833 -0.423584,0.257833 -0.653792,0.736666 -0.230209,0.469625 -0.230209,1.123416 v 4.659414 z m 10.828992,0.174958 q -0.976082,0 -1.721957,-0.313083 -0.745875,-0.313083 -1.169458,-0.948458 -0.423583,-0.635374 -0.423583,-1.602249 0,-0.819541 0.285459,-1.381249 0.285458,-0.570916 0.791916,-0.930041 0.515666,-0.368333 1.197082,-0.5525 0.681417,-0.193375 1.464125,-0.248625 0.856374,-0.05525 1.37204,-0.147333 0.524875,-0.101291 0.755083,-0.267042 0.230208,-0.16575 0.230208,-0.432791 v -0.03684 q 0,-0.211791 -0.138125,-0.368333 -0.138124,-0.156541 -0.386749,-0.239417 -0.239417,-0.09208 -0.580125,-0.09208 -0.359125,0 -0.626166,0.101292 -0.257833,0.101291 -0.405167,0.303875 -0.147333,0.193375 -0.184166,0.478833 h -3.370248 q 0.08288,-1.105 0.635374,-1.869291 0.5525,-0.773499 1.574624,-1.169458 1.031333,-0.405166 2.523082,-0.405166 1.123416,0 1.979791,0.230209 0.865582,0.220999 1.445707,0.662999 0.589333,0.442 0.883999,1.086583 0.294667,0.635374 0.294667,1.464124 v 6.501081 H 63.24618 v -1.362833 h -0.03684 q -0.322292,0.580125 -0.736666,0.920833 -0.414375,0.3315 -0.930042,0.469624 -0.506457,0.147334 -1.132624,0.147334 z m 1.197083,-2.292874 q 0.395958,0 0.764291,-0.147333 0.377542,-0.156542 0.616958,-0.451208 0.239417,-0.294666 0.239417,-0.727458 v -0.773499 q -0.138125,0.04604 -0.294667,0.09208 -0.147333,0.04604 -0.322291,0.09208 -0.174959,0.03683 -0.38675,0.08288 -0.211792,0.03683 -0.469625,0.08288 -0.377541,0.06446 -0.653791,0.193375 -0.267041,0.128917 -0.414375,0.322291 -0.147333,0.193375 -0.147333,0.442 0,0.248625 0.138125,0.432791 0.138125,0.174959 0.377541,0.267042 0.239417,0.09208 0.5525,0.09208 z m 10.497495,-3.038748 v 5.156664 H 68.421262 V 9.967181 h 3.637289 v 2.679624 h -0.478833 q 0.451209,-1.270749 1.307583,-2.081082 0.856375,-0.819541 2.329708,-0.819541 1.086583,0 1.814039,0.469624 0.727457,0.460417 1.095792,1.316791 0.368335,0.856375 0.368335,2.025832 v 6.132747 h -3.683334 v -5.303997 q 0,-0.736666 -0.349916,-1.132625 -0.349916,-0.395957 -1.003708,-0.395957 -0.432791,0 -0.736666,0.184166 -0.303875,0.184167 -0.460416,0.561708 -0.156542,0.368333 -0.156542,0.930041 z m 7.974412,5.156664 V 9.967181 h 3.683331 v 9.723995 z M 81.911462,9.322599 q -0.865583,0 -1.418083,-0.49725 -0.543291,-0.49725 -0.543291,-1.279957 0,-0.7735 0.543291,-1.261541 0.5525,-0.49725 1.418083,-0.49725 0.865582,0 1.408874,0.49725 0.5525,0.488041 0.5525,1.270749 0,0.773499 -0.5525,1.270749 -0.543292,0.49725 -1.408874,0.49725 z m 10.248866,0.644582 v 2.799332 H 84.830501 V 9.967181 Z M 86.469584,7.315183 h 3.683331 v 8.821578 q 0,0.432792 0.165747,0.598541 0.174962,0.156542 0.681418,0.156542 0.248626,0 0.626165,0 0.386753,0 0.534083,0 v 2.799332 q -0.248621,0 -0.828748,0 -0.570917,0 -1.197083,0 -1.91533,0 -2.790121,-0.690625 -0.874792,-0.699833 -0.874792,-2.219207 z m 11.556449,12.596993 q -1.510165,0 -2.679622,-0.644583 -1.169456,-0.653792 -1.832456,-1.804833 -0.653792,-1.15104 -0.653792,-2.633581 0,-1.491749 0.653792,-2.633582 0.653791,-1.151041 1.795621,-1.795624 1.151044,-0.653791 2.642792,-0.653791 1.123413,0 2.053452,0.368333 0.93004,0.359125 1.61146,1.031333 0.68142,0.662999 1.04975,1.574624 0.37754,0.911624 0.37754,2.007415 v 0.985291 h -9.097824 v -2.062665 h 7.421904 l -1.694325,0.359125 q 0,-0.515667 -0.193374,-0.874792 -0.193374,-0.368333 -0.5525,-0.561708 -0.359127,-0.193375 -0.874792,-0.193375 -0.506456,0 -0.874791,0.193375 -0.359127,0.193375 -0.5525,0.561708 -0.193374,0.359125 -0.193374,0.874792 v 1.629873 q 0,0.534083 0.202582,0.920833 0.211792,0.38675 0.598539,0.589333 0.395962,0.202584 0.939253,0.202584 0.395956,0 0.709039,-0.101292 0.322291,-0.101292 0.543291,-0.285458 0.221,-0.193375 0.322292,-0.451208 h 3.25975 q -0.17496,0.994499 -0.87479,1.75879 -0.69983,0.764291 -1.768,1.206291 -1.05896,0.432792 -2.338917,0.432792 z m 7.909957,-0.04604 q -0.79192,0 -1.35363,-0.561708 -0.5617,-0.561708 -0.5617,-1.353624 0,-0.791917 0.5617,-1.353625 0.56171,-0.561707 1.35363,-0.561707 0.79191,0 1.35362,0.561707 0.56171,0.561708 0.56171,1.353625 0,0.791916 -0.56171,1.353624 -0.56171,0.561708 -1.35362,0.561708 z m 8.12175,0.04604 q -1.55621,0 -2.72567,-0.635375 -1.16946,-0.635375 -1.82325,-1.777207 -0.64459,-1.151041 -0.64459,-2.670415 0,-1.519375 0.64459,-2.661207 0.65379,-1.151041 1.82325,-1.786416 1.16946,-0.635374 2.72567,-0.635374 1.06816,0 1.96136,0.313083 0.90242,0.303875 1.55621,0.874791 0.663,0.561708 1.04054,1.344416 0.37755,0.773499 0.41438,1.721957 h -3.51758 q -0.0276,-0.322291 -0.13813,-0.580125 -0.10129,-0.257833 -0.28545,-0.441999 -0.17496,-0.184167 -0.42359,-0.27625 -0.23941,-0.101291 -0.53408,-0.101291 -0.48804,0 -0.83796,0.267041 -0.3407,0.267041 -0.52487,0.764291 -0.18417,0.49725 -0.18417,1.197083 0,0.690624 0.18417,1.197082 0.18417,0.49725 0.53408,0.764291 0.34992,0.267042 0.82875,0.267042 0.29467,0 0.53408,-0.101292 0.24863,-0.101291 0.42359,-0.285458 0.18416,-0.184167 0.28545,-0.451208 0.1105,-0.267041 0.13813,-0.598541 h 3.51758 q 0,0.948458 -0.36833,1.731166 -0.35913,0.782707 -1.02213,1.362832 -0.66299,0.570916 -1.57462,0.883999 -0.91163,0.313084 -2.00741,0.313084 z m 11.10524,0 q -1.57463,0 -2.77171,-0.616958 -1.19708,-0.626167 -1.86929,-1.768 -0.663,-1.141832 -0.663,-2.698039 0,-1.556208 0.663,-2.688832 0.67221,-1.141833 1.86929,-1.767999 1.19708,-0.626166 2.77171,-0.626166 1.58383,0 2.77171,0.626166 1.19708,0.626166 1.86008,1.767999 0.67221,1.132624 0.67221,2.688832 0,1.556207 -0.67221,2.698039 -0.663,1.141833 -1.86008,1.768 -1.18788,0.616958 -2.77171,0.616958 z m 0,-2.872999 q 0.442,0 0.80112,-0.248625 0.35913,-0.248625 0.57092,-0.736666 0.21179,-0.49725 0.21179,-1.224707 0,-0.736667 -0.21179,-1.224708 -0.21179,-0.488041 -0.57092,-0.736666 -0.35912,-0.248625 -0.80112,-0.248625 -0.4328,0 -0.80113,0.248625 -0.35912,0.248625 -0.57091,0.736666 -0.21179,0.488041 -0.21179,1.224708 0,0.727457 0.21179,1.224707 0.21179,0.488041 0.57091,0.736666 0.36833,0.248625 0.80113,0.248625 z m 10.35016,2.872999 q -1.27075,0 -2.21921,-0.626167 -0.93925,-0.635374 -1.46412,-1.777207 -0.51567,-1.151041 -0.51567,-2.69804 0,-1.491749 0.53408,-2.633582 0.53409,-1.141832 1.47334,-1.786415 0.93924,-0.644583 2.15474,-0.644583 0.63538,0 1.13263,0.165749 0.49725,0.156542 0.884,0.488042 0.39596,0.322292 0.69983,0.837958 h 0.009 V 5.970767 h 3.68333 v 13.720409 h -3.6463 V 18.18101 h -0.009 q -0.221,0.570916 -0.61695,0.957666 -0.38675,0.38675 -0.92084,0.580124 -0.53408,0.193376 -1.17866,0.193376 z m 1.09579,-2.891415 q 0.50646,0 0.89321,-0.267042 0.38675,-0.27625 0.60775,-0.773499 0.221,-0.49725 0.221,-1.169458 0,-0.672208 -0.221,-1.160249 -0.221,-0.488042 -0.60775,-0.755083 -0.38675,-0.27625 -0.89321,-0.27625 -0.49725,0 -0.85637,0.27625 -0.34992,0.267041 -0.53409,0.755083 -0.18417,0.488041 -0.18417,1.160249 0,0.672208 0.18417,1.169458 0.18417,0.497249 0.53409,0.773499 0.35912,0.267042 0.85637,0.267042 z m 11.65774,2.891415 q -1.51017,0 -2.67962,-0.644583 -1.16946,-0.653792 -1.83246,-1.804833 -0.65379,-1.15104 -0.65379,-2.633581 0,-1.491749 0.65379,-2.633582 0.65379,-1.151041 1.79562,-1.795624 1.15105,-0.653791 2.64279,-0.653791 1.12342,0 2.05346,0.368333 0.93005,0.359125 1.61146,1.031333 0.68142,0.662999 1.04975,1.574624 0.37754,0.911624 0.37754,2.007415 v 0.985291 h -9.09783 v -2.062665 h 7.42192 l -1.69434,0.359125 q 0,-0.515667 -0.19337,-0.874792 -0.19338,-0.368333 -0.5525,-0.561708 -0.35913,-0.193375 -0.87479,-0.193375 -0.50646,0 -0.8748,0.193375 -0.35912,0.193375 -0.5525,0.561708 -0.19337,0.359125 -0.19337,0.874792 v 1.629873 q 0,0.534083 0.20258,0.920833 0.21179,0.38675 0.59855,0.589333 0.39595,0.202584 0.93924,0.202584 0.39596,0 0.70904,-0.101292 0.3223,-0.101292 0.5433,-0.285458 0.221,-0.193375 0.32229,-0.451208 h 3.25974 q -0.17495,0.994499 -0.87479,1.75879 -0.69983,0.764291 -1.76799,1.206291 -1.05896,0.432792 -2.33892,0.432792 z"
     id="text5"
     style="font-size:37.3333px;font-family:'Inter Variable';-inkscape-font-specification:'Inter Variable, @opsz=32,wght=900';font-variation-settings:'opsz' 32, 'wght' 900;fill:#000000;fill-opacity:1;stroke-width:1.00001"
     aria-label="granite.code" />
</svg>
